<svg width="684" height="138" viewBox="0 0 684 138" fill="none" xmlns="http://www.w3.org/2000/svg">
<path d="M87.61 2.62V28.65H33.27V56.77H73.93V82.04H33.27V136H0.780001V2.62H87.61ZM137.176 110.92H179.736V136H104.686V2.62H137.176V110.92ZM258.313 137.33C245.773 137.33 234.246 134.417 223.733 128.59C213.346 122.763 205.05 114.657 198.843 104.27C192.763 93.7567 189.723 81.9767 189.723 68.93C189.723 55.8833 192.763 44.1667 198.843 33.78C205.05 23.3933 213.346 15.2867 223.733 9.46C234.246 3.63333 245.773 0.719998 258.313 0.719998C270.853 0.719998 282.316 3.63333 292.703 9.46C303.216 15.2867 311.45 23.3933 317.403 33.78C323.483 44.1667 326.523 55.8833 326.523 68.93C326.523 81.9767 323.483 93.7567 317.403 104.27C311.323 114.657 303.09 122.763 292.703 128.59C282.316 134.417 270.853 137.33 258.313 137.33ZM258.313 107.69C268.953 107.69 277.44 104.143 283.773 97.05C290.233 89.9567 293.463 80.5833 293.463 68.93C293.463 57.15 290.233 47.7767 283.773 40.81C277.44 33.7167 268.953 30.17 258.313 30.17C247.546 30.17 238.933 33.6533 232.473 40.62C226.14 47.5867 222.973 57.0233 222.973 68.93C222.973 80.71 226.14 90.1467 232.473 97.24C238.933 104.207 247.546 107.69 258.313 107.69ZM412.618 136L384.878 85.65H377.088V136H344.598V2.62H399.128C409.642 2.62 418.572 4.45666 425.918 8.12999C433.392 11.8033 438.965 16.87 442.638 23.33C446.312 29.6633 448.148 36.7567 448.148 44.61C448.148 53.4767 445.615 61.3933 440.548 68.36C435.608 75.3267 428.262 80.2667 418.508 83.18L449.288 136H412.618ZM377.088 62.66H397.228C403.182 62.66 407.615 61.2033 410.528 58.29C413.568 55.3767 415.088 51.26 415.088 45.94C415.088 40.8733 413.568 36.8833 410.528 33.97C407.615 31.0567 403.182 29.6 397.228 29.6H377.088V62.66ZM551.574 112.44H501.794L493.814 136H459.804L508.064 2.62H545.684L593.944 136H559.554L551.574 112.44ZM543.214 87.36L526.684 38.53L510.344 87.36H543.214ZM641.122 110.92H683.682V136H608.632V2.62H641.122V110.92Z" fill="white"/>
</svg>
